<svg id="Laag_1" data-name="Laag 1" xmlns="http://www.w3.org/2000/svg" viewBox="0 0 217.4 100.2"><defs><style>.cls-1,.cls-2{fill:#004979;}.cls-1{fill-rule:evenodd;}</style></defs><title>logo_instruct</title><path class="cls-1" d="M274.7,396.7h5.2v-9.5c0-3.5,1.7-8.2,5.2-8.2,1.8,0,2.2.6,2.2,5.1v12.6h5.2V381.4c0-5-2.8-7.2-6-7.2a6.8,6.8,0,0,0-6.5,4.6h-.1v-4.1h-5.2Z" transform="translate(-185.1 -340.7)"/><path class="cls-1" d="M310.1,375a17.8,17.8,0,0,0-5-.8c-4.8,0-7.9,2.3-7.9,6.4,0,5.9,9.5,8,9.5,10.6s-2.6,2-3.8,2a14.9,14.9,0,0,1-5.6-1.3v4.4a18,18,0,0,0,5.8.9c4.8,0,8.3-2.1,8.3-6.6,0-6.3-9.6-7.8-9.6-10.7,0-1.3,1.8-2,3.4-2a13.2,13.2,0,0,1,4.9,1.4Z" transform="translate(-185.1 -340.7)"/><path class="cls-1" d="M331.6,396.7h5.1V387c0-5.3,2.1-7.5,7.2-7.5v-5.3c-4.4,0-5.9,2.4-7.1,4.5h-.1v-4h-5.1Z" transform="translate(-185.1 -340.7)"/><path class="cls-1" d="M360.3,396.7h5.1v-22h-5.1v9.5c0,3.5-1.8,8.2-5.2,8.2-1.8,0-2.2-.7-2.2-5.2V374.7h-5.2v15.2c0,5.1,2.8,7.3,6,7.3a7,7,0,0,0,6.5-4.6h.1Z" transform="translate(-185.1 -340.7)"/><path class="cls-1" d="M388.5,393a10.2,10.2,0,0,1-3.7.6c-6.7,0-9.1-5.3-9.1-9.8s1.4-6,4.3-6,3.3,2.3,3.3,4.4h5.4c0-4.1-1.7-8-8.3-8s-10.1,4.8-10.1,10.5c0,8.9,5.2,12.5,11.8,12.5a21.5,21.5,0,0,0,6.4-1Z" transform="translate(-185.1 -340.7)"/><path class="cls-1" d="M324.6,394s0,.1-.8,0-1.9.3-1.8-5.3V378.4h3.6v-3.5H322v-8.3l-5.1,3.1v5.2h-3.4v3.5h3.4v12.7c0,3.3.9,6,6.7,6h1.2Z" transform="translate(-185.1 -340.7)"/><path class="cls-1" d="M401.6,394s0,.1-.9,0-1.8.3-1.8-5.3V378.4h3.7v-3.5h-3.7v-8.3l-5.1,3.1v5.2h-3.3v3.5h3.3v12.7c0,3.3,1,6,6.7,6h1.3Z" transform="translate(-185.1 -340.7)"/><path class="cls-1" d="M260.3,397.4s7.5.2,7.5-4.4V374.7H257.5V379h5.1v14.1c0,.4-.1.8-.3.9a4.9,4.9,0,0,1-2,.3Z" transform="translate(-185.1 -340.7)"/><rect class="cls-2" x="77.4" y="23.8" width="5.2" height="5.12"/><rect class="cls-2" width="22.1" height="22.11"/><path class="cls-2" d="M185.1,374.5h44.3v22.1H207.3v22.1H185.1V374.5Zm44.3,22.1h22.1v44.2H207.3V418.7h22.1Z" transform="translate(-185.1 -340.7)"/></svg>